<?xml version="1.0" encoding="UTF-8"?>
<svg id="Livello_2" data-name="Livello 2" xmlns="http://www.w3.org/2000/svg" viewBox="0 0 375.2 60.08">
  <defs>
    <style>
      .cls-1 {
        fill: #fff;
      }

      .cls-2 {
        fill: #9a88f8;
      }
    </style>
  </defs>
  <g id="Livello_2-2" data-name="Livello 2">
    <g>
      <g>
        <polygon class="cls-2" points="299.23 52.83 299.23 59.28 316.07 59.28 326.91 47.92 320.87 32.06 299.23 52.83"/>
        <polygon class="cls-2" points="312.29 .83 335.06 59.28 357.56 59.28 334.55 .83 312.29 .83"/>
        <polygon class="cls-2" points="375.2 .83 353.08 .83 342.28 12.06 348.48 27.26 375.2 .83"/>
      </g>
      <g>
        <path class="cls-1" d="M28.73,37.61h11.58c-.05,1.98-.5,3.72-1.38,5.2-.93,1.56-2.3,2.77-4.1,3.61-1.8.85-3.99,1.27-6.58,1.27-2.93,0-5.43-.7-7.48-2.08s-3.63-3.41-4.71-6.05c-1.08-2.65-1.63-5.84-1.63-9.59s.56-6.91,1.68-9.52,2.72-4.61,4.78-5.98c2.07-1.37,4.52-2.06,7.35-2.06,1.41,0,2.7.17,3.88.5s2.23.82,3.14,1.47,1.68,1.43,2.31,2.36c.63.92,1.1,1.98,1.43,3.18h14.31c-.34-2.91-1.22-5.59-2.63-8.03-1.41-2.44-3.24-4.54-5.5-6.31-2.26-1.77-4.85-3.14-7.77-4.11-2.92-.97-6.08-1.46-9.47-1.46-3.9,0-7.54.67-10.92,2-3.38,1.33-6.35,3.29-8.91,5.88s-4.55,5.74-5.98,9.47S0,25.33,0,30.13c0,6.17,1.18,11.49,3.54,15.98,2.36,4.48,5.65,7.93,9.88,10.35,4.23,2.42,9.13,3.63,14.71,3.63,5.03,0,9.48-1,13.35-3,3.87-2,6.92-4.86,9.14-8.6,2.22-3.73,3.33-8.21,3.33-13.45v-7.74h-25.22v10.31Z"/>
        <path class="cls-1" d="M102.21,3.48c-4.22-2.32-8.94-3.48-14.18-3.48s-9.99,1.16-14.19,3.48c-4.21,2.32-7.54,5.72-10.01,10.19-2.47,4.47-3.7,9.93-3.7,16.36s1.23,11.86,3.7,16.32c2.47,4.46,5.8,7.87,10.01,10.21,4.21,2.34,8.94,3.51,14.19,3.51s9.96-1.16,14.18-3.48c4.22-2.32,7.56-5.72,10.04-10.19s3.71-9.93,3.71-16.36-1.24-11.89-3.71-16.36c-2.47-4.47-5.82-7.87-10.04-10.19ZM99.89,39.69c-1.08,2.63-2.62,4.62-4.63,5.97-2.01,1.35-4.42,2.03-7.24,2.03s-5.21-.68-7.23-2.03c-2.02-1.35-3.57-3.34-4.64-5.97s-1.61-5.84-1.61-9.65.54-7.02,1.61-9.65,2.62-4.62,4.64-5.97,4.43-2.03,7.23-2.03,5.23.68,7.24,2.03c2.01,1.35,3.55,3.34,4.63,5.97,1.08,2.63,1.61,5.84,1.61,9.65s-.54,7.02-1.61,9.65Z"/>
        <path class="cls-1" d="M164.84,30.6c1.77-2.83,2.66-6.27,2.66-10.32s-.87-7.46-2.6-10.38c-1.73-2.92-4.19-5.17-7.38-6.74-3.19-1.57-6.97-2.36-11.35-2.36h-24.16v58.48h14.14v-20.02h7.24l10.69,20.02h15.42l-12.13-22.26c3.22-1.47,5.72-3.61,7.48-6.42ZM136.14,12.19h6.97c2.11,0,3.89.3,5.34.9,1.45.6,2.54,1.49,3.28,2.68s1.11,2.69,1.11,4.5-.37,3.29-1.11,4.44c-.74,1.15-1.83,2.01-3.27,2.57s-3.22.84-5.35.84h-6.97v-15.93Z"/>
        <rect class="cls-1" x="173.07" y=".8" width="14.14" height="58.48"/>
        <polygon class="cls-1" points="208.02 .8 193.88 .8 193.88 59.28 232.35 59.28 232.35 47.8 208.02 47.8 208.02 .8"/>
        <polygon class="cls-1" points="251.63 .8 237.49 .8 237.49 59.28 275.96 59.28 275.96 47.8 251.63 47.8 251.63 .8"/>
        <rect class="cls-1" x="281.1" y=".8" width="14.14" height="58.48"/>
      </g>
    </g>
  </g>
</svg>